<svg width="31" height="36" viewBox="0 0 31 36" fill="none" xmlns="http://www.w3.org/2000/svg">
<rect width="31" height="36" fill="#1E1E1E"/>
<g clip-path="url(#clip0_0_1)">
<rect width="1440" height="954" transform="translate(-316 -228)" fill="#ECEFF3"/>
<g filter="url(#filter0_b_0_1)">
<g clip-path="url(#clip1_0_1)">
<rect width="280" height="676" transform="translate(-24 -51)" fill="white" fill-opacity="0.8"/>
<rect width="280" height="676" transform="translate(-24 -51)" fill="white" fill-opacity="0.4"/>
<path d="M17.0203 14.8375C19.7256 17.0691 23.7279 16.685 25.9594 13.9797C28.1909 11.2744 27.8068 7.27212 25.1015 5.04059C22.3962 2.80903 18.394 3.19315 16.1624 5.89846C13.9309 8.60377 14.3149 12.606 17.0203 14.8375ZM17.0203 14.8375L4.89848 29.533L8.57234 32.5634" stroke="black" stroke-width="5.56745" stroke-linecap="round" stroke-linejoin="round"/>
<path d="M8.93909 24.6345L12.6129 27.665" stroke="black" stroke-width="5.56745" stroke-linecap="round" stroke-linejoin="round"/>
</g>
</g>
</g>
<defs>
<filter id="filter0_b_0_1" x="-64" y="-91" width="1114" height="756" filterUnits="userSpaceOnUse" color-interpolation-filters="sRGB">
<feFlood flood-opacity="0" result="BackgroundImageFix"/>
<feGaussianBlur in="BackgroundImageFix" stdDeviation="20"/>
<feComposite in2="SourceAlpha" operator="in" result="effect1_backgroundBlur_0_1"/>
<feBlend mode="normal" in="SourceGraphic" in2="effect1_backgroundBlur_0_1" result="shape"/>
</filter>
<clipPath id="clip0_0_1">
<rect width="1440" height="954" fill="white" transform="translate(-316 -228)"/>
</clipPath>
<clipPath id="clip1_0_1">
<rect x="-24" y="-51" width="1034" height="676" rx="32" fill="white"/>
</clipPath>
</defs>
</svg>
